<svg id="Layer_13_copy" data-name="Layer 13 copy" xmlns="http://www.w3.org/2000/svg" viewBox="0 0 302.58 434.52"><defs><style>.cls-1{fill:#fff}</style></defs><path class="cls-1" d="M270.42 503.21q4.56 2.82 9.29 5.4a203.36 203.36 0 0 0-3.47 21.59h-10.3a216.76 216.76 0 0 1 4.48-26.99Zm6.58-23.58q-3.43 10.42-5.94 20.78c-.06.29-.14.58-.2.87q4.54 2.82 9.26 5.41a241.484 241.484 0 0 1 5.5-20.38q-4.4-3.21-8.62-6.68Zm44.23-85.53q-3.19 4.48-6.21 9-3.28 4.92-6.39 9.89c-2.05 3.29-10.67 18.66-12.59 22-2.31 4 2.1-4 0 0q-3 5.7-5.72 11.46c-.11.25-.24.51-.35.77a291.42 291.42 0 0 0-12.33 30.53q4.19 3.46 8.58 6.71a280.7 280.7 0 0 1 9.82-25.73c1.74-4 3.63-8.07 5.7-12.28s4.41-8.7 6.89-13.19c1.87-3.4 3.86-6.86 6-10.34s4.31-7 6.64-10.6c2-3 4.05-6.1 6.21-9.21a483.3 483.3 0 0 0-6.24-9.01Zm25 106.31a279.89 279.89 0 0 0-18.9-53.22c-.13-.26-.24-.52-.36-.77-1.82-3.84-3.71-7.66-5.71-11.46q-3.17-6.06-6.64-12.07-2.88-5-6-9.92t-6.39-9.89q-3-4.49-6.2-9c-2.13 3-4 5.75-6.22 9 2.16 3.11 4.21 6 6.22 9.21 2.29 3.6 4.54 7.11 6.63 10.6s4.08 6.95 6 10.34c2.49 4.49 4.77 8.89 6.89 13.19s4 8.3 5.71 12.28a266.27 266.27 0 0 1 14.88 43.59q1.32 5.44 2.27 10.37 5.46 2.08 11.13 3.92c-.86-4.94-1.93-10.35-3.33-16.17Zm3.65 18.25q-5.62-1.78-11.05-3.83c.93 5.08 1.59 9.7 2.05 13.79 3.1.6 6.18 1.13 9.18 1.58h1.31c-.37-3.46-.84-7.31-1.51-11.54ZM333.83 413c-2.05 3.29-4 6.6-5.94 9.92q-3.5 6-6.64 12.07c-2 3.81-3.91 7.62-5.72 11.46-.13.26-.24.51-.36.76q-3.5 7.45-6.53 14.94-2.92 7.28-5.44 14.56c2.17 6 4 11.7 5.44 16.93 1.49-5.24 3.28-10.9 5.44-16.93q3.06-8.52 7.16-18c1.74-4 3.65-8.08 5.7-12.29s4.42-8.7 6.89-13.19q2.84-5.1 6-10.34-2.91-4.98-6-9.89Zm-84.67 75.16q-1.8 6.17-3.28 12.28a218.15 218.15 0 0 0-5.12 29.79H251a213.39 213.39 0 0 1 4.79-27.39q.91-3.8 2.07-8-2.26-1.65-4.49-3.36c-1.37-1.09-2.8-2.21-4.21-3.35Zm9.08-26c-3.25 8-6.08 16-8.5 24q2.37 1.95 4.82 3.81 1.92 1.49 3.89 2.91c2-6.92 4.5-14.58 7.71-22.83-2.69-2.5-5.34-5.16-7.92-7.91Zm37.81-68c-2.13 3-5.06 7.24-6.22 9-1.45 2.19-3.72 5.55-6.39 9.89-2 3.31-4 6.6-5.95 9.92q-7 12-12.72 24.3-3.06 6.48-5.75 13c2.56 2.77 5.2 5.44 7.87 8a304.46 304.46 0 0 1 16.55-35c1.89-3.4 3.87-6.86 6-10.34s4.46-6.76 6.81-10.34c2-3 3.87-6.36 6-9.47q-3.03-4.52-6.2-9.02Zm75.35 106.25a279.21 279.21 0 0 0-18.9-53.22q-5.73-12.22-12.71-24.3-2.87-5-6-9.92t-6.38-9.89c-2-3-4.09-6-6.21-9q-3.19 4.48-6.21 9c2.16 3.11 4.23 6.17 6.21 9.21q3.5 5.35 6.64 10.6c2.11 3.48 4.08 6.94 5.95 10.34 15.21 27.42 23.21 51.45 27.53 69.06 1.67 6.88 2.87 13.16 3.73 18.73q5.28 1.32 10.7 2.43a229.11 229.11 0 0 0-4.35-23.04Zm4.61 25q-5.4-1.08-10.66-2.39c.37 2.56.66 5 .89 7.18h10.3c-.15-1.53-.33-3.12-.54-4.79Zm-67.37-63.29c-2-5-4.2-10-6.53-14.94-.12-.25-.24-.5-.35-.76-1.82-3.84-3.72-7.65-5.71-11.46q-3.18-6.06-6.64-12.07-2.88-5-6-9.92-3.07 4.93-5.95 9.92 3.15 5.25 5.95 10.34c2.5 4.49 4.78 8.89 6.89 13.19s4 8.31 5.72 12.29q4.11 9.44 7.15 18c2.17 6 4 11.7 5.44 16.93 1.49-5.24 3.28-10.9 5.44-16.93q-2.46-7.3-5.41-14.59Zm10-80.53-10.3-162.86c-.05-.68-.8-.67-.84 0l-8.92 162.85 10 16.7Z" transform="translate(-148.96 -186.85)"/><path class="cls-1" d="M268.88 411.91H255.3v-33.95h-6.79v40.74h27.17v-54.32h-6.8v47.53zM112.56 364.38l-6.79 27.16-6.8-27.16H88.79v6.79h3.39v40.74h-3.39v6.79h13.58v-6.79h-3.4v-23.77h.5l2.9 16.98h6.79l2.89-16.98h.51v23.77h-3.4v6.79h13.58v-6.79h-3.39v-40.74h3.39v-6.79h-10.18z"/><path class="cls-1" d="M427.9 551.23V558h3.27v40.74h-3.27v6.8h13.59v-6.8h-3.4l-.09-20.35h13.44v-6.79l.07-13.58v-6.79Zm16.78 20.37H438l.06-13.58h6.66Z" transform="translate(-148.96 -186.85)"/><path class="cls-1" d="M173.68 411.91h-6.79v-40.74h3.39v-6.79H156.7v6.79h3.39v47.53h20.38v-13.58h-6.79v6.79zM190.66 364.38h-6.8v54.32h20.38v-13.58h-6.79v6.79h-6.79v-20.37h6.79v-6.79h-6.79v-13.58h6.79v6.79h6.79v-13.58h-13.58zM231.4 364.38h-6.79v54.32h20.37v-13.58h-6.79v6.79h-6.79v-40.74h6.79v6.79h6.79v-13.58H231.4z"/><path class="cls-1" d="M275.1 551.23v54.33h27.17v-54.33Zm20.38 47.53H281.9V558h13.58Z" transform="translate(-148.96 -186.85)"/><path class="cls-1" d="M258.7 398.33h6.79v10.19h-6.79zM88.78 427.73h213.79v6.79H88.78zM17.08 411.78h-6.83V370.8h3.41v-6.83H0v6.83h3.42V418.61H23.91v-13.66h-6.83v6.83zM71.61 411.78v-27.32H57.95V370.8h6.83v6.83h6.83v-13.66H51.12v28.51l13.62-.05.08 20.54h-6.88v-8.1h-6.82v13.74H71.61v-6.83M34.04 363.97h-6.83V418.61H47.7v-13.66h-6.83v6.83h-6.83V370.8h6.83v6.83h6.83v-13.66H34.04z"/><path class="cls-1" d="M0 427.69h90.24v6.83H0z"/><path class="cls-1" d="M266.16 470.07c.93.9 1.87 1.76 2.81 2.61q3.93 3.58 8 6.95t8.62 6.68a219.06 219.06 0 0 0 51.73 28c.48.18 1 .37 1.45.54q5.42 2.05 11.05 3.83c5.05 1.61 10.23 3.06 15.49 4.36q5.26 1.32 10.66 2.39l.92.19c7.24 1.39 14 2.43 20.64 3.17 4.14.47 8.44.85 13.18 1.16-4.16.67-8.54 1.23-13.2 1.66a202.75 202.75 0 0 1-21.32.75 212.51 212.51 0 0 1-21.43-1.49c-1.56-.2-3.15-.42-4.76-.65-3-.45-6.08-1-9.18-1.58-2.42-.46-4.88-1-7.36-1.53a207 207 0 0 1-53.37-20.4q-4.71-2.58-9.26-5.41-6.37-4-12.42-8.38-2-1.42-3.89-2.91l-4.82-3.81a192.68 192.68 0 0 1-51.35-65.2 181.6 181.6 0 0 1-8.63-20.94 179.16 179.16 0 0 1-5.93-22 184.26 184.26 0 0 1-3.33-45.32 178.34 178.34 0 0 1 8.09-44.8 158.3 158.3 0 0 1 19.92-41.26 139.18 139.18 0 0 1 31.68-33.47c3.45-2.58 6.57-4.72 9.53-6.56 3.32-2.1 6.69-4 10-5.7a137.89 137.89 0 0 1 21.32-8.58c3.18-1 6.67-2 11-3a106.73 106.73 0 0 1 11.49-1.88 114.51 114.51 0 0 1 12.53-.69q5.2 0 10.35.47a116.64 116.64 0 0 1 43.1 12.29A94.64 94.64 0 0 1 388 212.1a75.07 75.07 0 0 1 14.53 16.82 63.82 63.82 0 0 1 8.28 20.14 61.72 61.72 0 0 1 1.23 8.53c.13 1.58.19 3.16.19 4.75a66.36 66.36 0 0 0-4.09-12.43c-.05-.1-.1-.22-.15-.33a64.51 64.51 0 0 0-10.87-16.65 72.42 72.42 0 0 0-15.25-12.66 87.42 87.42 0 0 0-17.77-8.48 105 105 0 0 0-19-4.74 111.83 111.83 0 0 0-19.44-1.3 107.76 107.76 0 0 0-19 2.12 87.45 87.45 0 0 0-9.09 2.39l-.56.2c-2.81.95-5.72 1.93-8.49 3.08a114.11 114.11 0 0 0-17.1 8.54 117.45 117.45 0 0 0-15.36 11 122.7 122.7 0 0 0-24.49 28.62c-13 20.88-20.55 46-21.9 72.52a167.44 167.44 0 0 0 2.47 38.38 160.77 160.77 0 0 0 4.56 18.69 182.2 182.2 0 0 0 38.44 67.3q1.57 1.77 3.19 3.5" transform="translate(-148.96 -186.85)"/><path class="cls-1" d="M339.14 273.18s4.45 20.89 29.14 26.45c0 0 .5-.75-.88-1.82s-21.58-6.68-24.06-20.84c0 0-1-3.77.88-2.76s13.53 19 30.76 19.81a5.24 5.24 0 0 0 2.84-1c1.47-1 2.55-1 3.1-9.81s2.28-14.82 8.38-19.54 2.36 21.55.54 22.66a26.13 26.13 0 0 0-3.16 3.82c-.74 1.36-2.15 7 1.46 6.47s18-6.12 22.93-24.08c0 0 .38-7.91-.46-9.65s1.6 0 1.6 0 .07-6.31-.71-7.85-9.74-1.57-6.2 12.64-8.85 22.21-8.85 22.21-3.44 2.38-1.06-2.83 4.35-22.31 3.24-25.65-1.47-13.56-13.76-6.22-18.77 8-24.69 3.54 25.34-13.81 26.2-13.61 13.41-2.66 4.3-10.38-14.36-9.11-14.63-9.14-8 .22-11.16 1.43-4.66 7.17-9.92 8.89-.43-4.18-.43-4.18A46.81 46.81 0 0 0 348 237c-2.65 2.71-1.67 9.69 2.66 8.24s11.35-9.86 18.69-11 20 2.48 11.33 4.85-26.4 9.41-29.34 15.28-2.53 11 15.68 22.05 1.47 16.39-8.55 4.91c0 0-8.8-7.13-10.77-11.63s-7.84-9.82-7.89-4.71c.04-.06-.42 5.2-.67 8.19ZM342.3 245.08a33 33 0 0 0-4.3 14.46c-.33 8.07 4.3-14.46 4.3-14.46ZM388.93 228.41s9.41 5.56 13 13.62 6.48 4.29 6.48 4.29-7.41-13.96-19.48-17.91Z" transform="translate(-148.96 -186.85)"/></svg>